<svg   id="chart"   width="1000"   height="500"   viewBox="0 0 1000 500"   xmlns="http://www.w3.org/2000/svg" >      <path d="M 0,3.5823858245434566 C 1.35,3.9024240437453215 12.3,6.421655271457125 15,7.1383660378975105 C 17.7,7.855076804337896 27.3,10.723981359336847 30,11.545838784992192 C 32.7,12.367696210647539 42.3,15.862632053793726 45,16.270115211845805 C 47.7,16.677598369897886 57.3,15.429665253123959 60,16.073429430015302 C 62.7,16.717193606906648 72.3,21.533515836932203 75,23.423050510638518 C 77.7,25.312585184344833 87.3,34.537260276092084 90,37.06825913786324 C 92.7,39.59925799963439 102.3,50.07751437445079 105,51.54526008587357 C 107.7,53.01300579729635 117.3,52.25759969115775 120,53.37654482033858 C 122.7,54.49548994951941 132.3,62.58343458609697 135,63.97798374343831 C 137.7,65.37253290077965 147.3,68.08597127254055 150,68.87153545746457 C 152.7,69.6570996423886 162.3,72.61850640004563 165,72.7064746870386 C 167.7,72.79444297403155 177.3,70.75608636191184 180,69.84896086849751 C 182.7,68.94183537508319 192.3,63.5964436068431 195,62.627302537990545 C 197.7,61.65816146913799 207.3,58.024000892546276 210,59.08072677013573 C 212.7,60.13745264772519 222.3,69.28662150134467 225,74.36870117787342 C 227.7,79.45078085440217 237.3,113.34634620965888 240,115.54827873156627 C 242.7,117.75021125347367 252.3,96.70273587173314 255,98.83461808795558 C 257.7,100.96650030417801 267.3,134.98649969749454 270,139.2358589118155 C 272.7,143.4852181261365 282.3,144.91950893242498 285,146.04972046929964 C 287.7,147.1799320061743 297.3,154.1662247687626 300,151.79376487708953 C 302.7,149.42130498541647 312.3,118.11407684666408 315,119.68905500626579 C 317.7,121.2640331658675 327.3,168.3893714375915 330,169.2935222059975 C 332.7,170.1976729744035 342.3,131.0644450976062 345,129.73517465522144 C 347.7,128.40590421283667 357.3,156.47760424168231 360,154.5238506239445 C 362.7,152.57009700620668 372.3,107.03978782499571 375,108.02680112480127 C 377.7,109.01381442460682 387.3,160.81305681629794 390,165.4906650662285 C 392.7,170.16827331615906 402.3,156.36725138180822 405,160.00022612402958 C 407.7,163.63320086625095 417.3,201.2904069120305 420,205.8570510909105 C 422.7,210.42369526979047 432.3,215.55336809833042 435,210.7407170004738 C 437.7,205.9280659026172 447.3,154.964943831273 450,152.38315000361462 C 452.7,149.80135617595624 462.3,178.2523061124104 465,182.05411891538077 C 467.7,185.85593171835114 477.3,189.6314426789388 480,194.62551448106325 C 482.7,199.6195862831877 492.3,234.33727467866467 495,237.5438056056522 C 497.7,240.75033653263975 507.3,238.0278276438332 510,230.2536358920358 C 512.7,222.47944414023837 522.3,149.13880468002483 525,151.16389725234757 C 527.7,153.1889898246703 537.3,251.0466079490496 540,252.75466447339937 C 542.7,254.46272099774916 552.3,172.99703788122216 555,170.14230307845617 C 557.7,167.28756827569018 567.3,213.994439378988 570,221.03538888711074 C 572.7,228.07633839523348 582.3,245.93459265528296 585,248.37507539093093 C 587.7,250.8155581265789 597.3,248.08271353519135 600,248.1518637276437 C 602.7,248.22101392009606 612.3,244.9378074801637 615,249.14341086262377 C 617.7,253.34901424508382 627.3,293.26608877436695 630,294.88079019942217 C 632.7,296.4954916244774 642.3,277.0893083493612 645,267.084537807682 C 647.7,257.0797672660028 657.3,178.57045271529142 660,183.71667306965335 C 662.7,188.86289342401528 672.3,319.86266495381636 675,324.2647639672591 C 677.7,328.66686298070186 687.3,242.62460569881688 690,232.62888433012844 C 692.7,222.63316296144 702.3,212.05662220833003 705,213.20119320405428 C 707.7,214.34576419977853 717.3,237.64250066091194 720,245.34633983817582 C 722.7,253.0501790154397 732.3,299.21168195378885 735,298.79940628476413 C 737.7,298.3871306157394 747.3,240.84449582169532 750,240.76549907123442 C 752.7,240.6865023207735 762.3,287.8065222023549 765,297.9216646129764 C 767.7,308.0368070235978 777.3,353.07084790508816 780,353.15597030036156 C 782.7,353.24109269563496 792.3,292.88617518876555 795,298.8674690049029 C 797.7,304.8487628210402 807.3,411.53296127300666 810,419.61479047966503 C 812.7,427.6966196863234 822.3,389.7208961155843 825,388.665571301107 C 827.7,387.61024648662965 837.3,409.4832719476246 840,407.8889592076946 C 842.7,406.2946464677646 852.3,383.3966448055996 855,370.95098530188517 C 857.7,358.50532579817076 867.3,264.465646525875 870,269.60385361086804 C 872.7,274.7420606958611 882.3,428.87223622871153 885,428.04217513514095 C 887.7,427.2121140415704 897.3,257.13880291219164 900,260.38095257119517 C 902.7,263.6231022301987 912.3,446.3063005466034 915,464.06606023518015 C 917.7,481.8258199237569 927.3,456.9062423388638 930,457.7116157776036 C 932.7,458.51698921634335 942.3,483.23945338419463 945,473.01465399895517 C 947.7,462.7898546137157 957.3,346.34359434938506 960,344.1027337193871 C 962.7,341.8618730893892 973.65,438.75499035937054 975,448.11620255453374,L 1000 500,L 0 500Z" fill="#444cf71a" />   <path d="M 0,3.5823858245434566 C 1.35,3.9024240437453215 12.3,6.421655271457125 15,7.1383660378975105 C 17.7,7.855076804337896 27.3,10.723981359336847 30,11.545838784992192 C 32.7,12.367696210647539 42.3,15.862632053793726 45,16.270115211845805 C 47.7,16.677598369897886 57.3,15.429665253123959 60,16.073429430015302 C 62.7,16.717193606906648 72.3,21.533515836932203 75,23.423050510638518 C 77.7,25.312585184344833 87.3,34.537260276092084 90,37.06825913786324 C 92.7,39.59925799963439 102.3,50.07751437445079 105,51.54526008587357 C 107.7,53.01300579729635 117.3,52.25759969115775 120,53.37654482033858 C 122.7,54.49548994951941 132.3,62.58343458609697 135,63.97798374343831 C 137.7,65.37253290077965 147.3,68.08597127254055 150,68.87153545746457 C 152.7,69.6570996423886 162.3,72.61850640004563 165,72.7064746870386 C 167.7,72.79444297403155 177.3,70.75608636191184 180,69.84896086849751 C 182.7,68.94183537508319 192.3,63.5964436068431 195,62.627302537990545 C 197.7,61.65816146913799 207.3,58.024000892546276 210,59.08072677013573 C 212.7,60.13745264772519 222.3,69.28662150134467 225,74.36870117787342 C 227.7,79.45078085440217 237.3,113.34634620965888 240,115.54827873156627 C 242.7,117.75021125347367 252.3,96.70273587173314 255,98.83461808795558 C 257.7,100.96650030417801 267.3,134.98649969749454 270,139.2358589118155 C 272.7,143.4852181261365 282.3,144.91950893242498 285,146.04972046929964 C 287.7,147.1799320061743 297.3,154.1662247687626 300,151.79376487708953 C 302.7,149.42130498541647 312.3,118.11407684666408 315,119.68905500626579 C 317.7,121.2640331658675 327.3,168.3893714375915 330,169.2935222059975 C 332.7,170.1976729744035 342.3,131.0644450976062 345,129.73517465522144 C 347.7,128.40590421283667 357.3,156.47760424168231 360,154.5238506239445 C 362.7,152.57009700620668 372.3,107.03978782499571 375,108.02680112480127 C 377.7,109.01381442460682 387.3,160.81305681629794 390,165.4906650662285 C 392.7,170.16827331615906 402.3,156.36725138180822 405,160.00022612402958 C 407.7,163.63320086625095 417.3,201.2904069120305 420,205.8570510909105 C 422.7,210.42369526979047 432.3,215.55336809833042 435,210.7407170004738 C 437.7,205.9280659026172 447.3,154.964943831273 450,152.38315000361462 C 452.7,149.80135617595624 462.3,178.2523061124104 465,182.05411891538077 C 467.7,185.85593171835114 477.3,189.6314426789388 480,194.62551448106325 C 482.7,199.6195862831877 492.3,234.33727467866467 495,237.5438056056522 C 497.7,240.75033653263975 507.3,238.0278276438332 510,230.2536358920358 C 512.7,222.47944414023837 522.3,149.13880468002483 525,151.16389725234757 C 527.7,153.1889898246703 537.3,251.0466079490496 540,252.75466447339937 C 542.7,254.46272099774916 552.3,172.99703788122216 555,170.14230307845617 C 557.7,167.28756827569018 567.3,213.994439378988 570,221.03538888711074 C 572.7,228.07633839523348 582.3,245.93459265528296 585,248.37507539093093 C 587.7,250.8155581265789 597.3,248.08271353519135 600,248.1518637276437 C 602.7,248.22101392009606 612.3,244.9378074801637 615,249.14341086262377 C 617.7,253.34901424508382 627.3,293.26608877436695 630,294.88079019942217 C 632.7,296.4954916244774 642.3,277.0893083493612 645,267.084537807682 C 647.7,257.0797672660028 657.3,178.57045271529142 660,183.71667306965335 C 662.7,188.86289342401528 672.3,319.86266495381636 675,324.2647639672591 C 677.7,328.66686298070186 687.3,242.62460569881688 690,232.62888433012844 C 692.7,222.63316296144 702.3,212.05662220833003 705,213.20119320405428 C 707.7,214.34576419977853 717.3,237.64250066091194 720,245.34633983817582 C 722.7,253.0501790154397 732.3,299.21168195378885 735,298.79940628476413 C 737.7,298.3871306157394 747.3,240.84449582169532 750,240.76549907123442 C 752.7,240.6865023207735 762.3,287.8065222023549 765,297.9216646129764 C 767.7,308.0368070235978 777.3,353.07084790508816 780,353.15597030036156 C 782.7,353.24109269563496 792.3,292.88617518876555 795,298.8674690049029 C 797.7,304.8487628210402 807.3,411.53296127300666 810,419.61479047966503 C 812.7,427.6966196863234 822.3,389.7208961155843 825,388.665571301107 C 827.7,387.61024648662965 837.3,409.4832719476246 840,407.8889592076946 C 842.7,406.2946464677646 852.3,383.3966448055996 855,370.95098530188517 C 857.7,358.50532579817076 867.3,264.465646525875 870,269.60385361086804 C 872.7,274.7420606958611 882.3,428.87223622871153 885,428.04217513514095 C 887.7,427.2121140415704 897.3,257.13880291219164 900,260.38095257119517 C 902.7,263.6231022301987 912.3,446.3063005466034 915,464.06606023518015 C 917.7,481.8258199237569 927.3,456.9062423388638 930,457.7116157776036 C 932.7,458.51698921634335 942.3,483.23945338419463 945,473.01465399895517 C 947.7,462.7898546137157 957.3,346.34359434938506 960,344.1027337193871 C 962.7,341.8618730893892 973.65,438.75499035937054 975,448.11620255453374" fill="none" stroke="#444cf7" stroke-width="3px" />   <g>   		<circle cx="0" cy="3.5823858245434566" r="6" fill="#444cf7" />,		<circle cx="15" cy="7.1383660378975105" r="6" fill="#444cf7" />,		<circle cx="30" cy="11.545838784992192" r="6" fill="#444cf7" />,		<circle cx="45" cy="16.270115211845805" r="6" fill="#444cf7" />,		<circle cx="60" cy="16.073429430015302" r="6" fill="#444cf7" />,		<circle cx="75" cy="23.423050510638518" r="6" fill="#444cf7" />,		<circle cx="90" cy="37.06825913786324" r="6" fill="#444cf7" />,		<circle cx="105" cy="51.54526008587357" r="6" fill="#444cf7" />,		<circle cx="120" cy="53.37654482033858" r="6" fill="#444cf7" />,		<circle cx="135" cy="63.97798374343831" r="6" fill="#444cf7" />,		<circle cx="150" cy="68.87153545746457" r="6" fill="#444cf7" />,		<circle cx="165" cy="72.7064746870386" r="6" fill="#444cf7" />,		<circle cx="180" cy="69.84896086849751" r="6" fill="#444cf7" />,		<circle cx="195" cy="62.627302537990545" r="6" fill="#444cf7" />,		<circle cx="210" cy="59.08072677013573" r="6" fill="#444cf7" />,		<circle cx="225" cy="74.36870117787342" r="6" fill="#444cf7" />,		<circle cx="240" cy="115.54827873156627" r="6" fill="#444cf7" />,		<circle cx="255" cy="98.83461808795558" r="6" fill="#444cf7" />,		<circle cx="270" cy="139.2358589118155" r="6" fill="#444cf7" />,		<circle cx="285" cy="146.04972046929964" r="6" fill="#444cf7" />,		<circle cx="300" cy="151.79376487708953" r="6" fill="#444cf7" />,		<circle cx="315" cy="119.68905500626579" r="6" fill="#444cf7" />,		<circle cx="330" cy="169.2935222059975" r="6" fill="#444cf7" />,		<circle cx="345" cy="129.73517465522144" r="6" fill="#444cf7" />,		<circle cx="360" cy="154.5238506239445" r="6" fill="#444cf7" />,		<circle cx="375" cy="108.02680112480127" r="6" fill="#444cf7" />,		<circle cx="390" cy="165.4906650662285" r="6" fill="#444cf7" />,		<circle cx="405" cy="160.00022612402958" r="6" fill="#444cf7" />,		<circle cx="420" cy="205.8570510909105" r="6" fill="#444cf7" />,		<circle cx="435" cy="210.7407170004738" r="6" fill="#444cf7" />,		<circle cx="450" cy="152.38315000361462" r="6" fill="#444cf7" />,		<circle cx="465" cy="182.05411891538077" r="6" fill="#444cf7" />,		<circle cx="480" cy="194.62551448106325" r="6" fill="#444cf7" />,		<circle cx="495" cy="237.5438056056522" r="6" fill="#444cf7" />,		<circle cx="510" cy="230.2536358920358" r="6" fill="#444cf7" />,		<circle cx="525" cy="151.16389725234757" r="6" fill="#444cf7" />,		<circle cx="540" cy="252.75466447339937" r="6" fill="#444cf7" />,		<circle cx="555" cy="170.14230307845617" r="6" fill="#444cf7" />,		<circle cx="570" cy="221.03538888711074" r="6" fill="#444cf7" />,		<circle cx="585" cy="248.37507539093093" r="6" fill="#444cf7" />,		<circle cx="600" cy="248.1518637276437" r="6" fill="#444cf7" />,		<circle cx="615" cy="249.14341086262377" r="6" fill="#444cf7" />,		<circle cx="630" cy="294.88079019942217" r="6" fill="#444cf7" />,		<circle cx="645" cy="267.084537807682" r="6" fill="#444cf7" />,		<circle cx="660" cy="183.71667306965335" r="6" fill="#444cf7" />,		<circle cx="675" cy="324.2647639672591" r="6" fill="#444cf7" />,		<circle cx="690" cy="232.62888433012844" r="6" fill="#444cf7" />,		<circle cx="705" cy="213.20119320405428" r="6" fill="#444cf7" />,		<circle cx="720" cy="245.34633983817582" r="6" fill="#444cf7" />,		<circle cx="735" cy="298.79940628476413" r="6" fill="#444cf7" />,		<circle cx="750" cy="240.76549907123442" r="6" fill="#444cf7" />,		<circle cx="765" cy="297.9216646129764" r="6" fill="#444cf7" />,		<circle cx="780" cy="353.15597030036156" r="6" fill="#444cf7" />,		<circle cx="795" cy="298.8674690049029" r="6" fill="#444cf7" />,		<circle cx="810" cy="419.61479047966503" r="6" fill="#444cf7" />,		<circle cx="825" cy="388.665571301107" r="6" fill="#444cf7" />,		<circle cx="840" cy="407.8889592076946" r="6" fill="#444cf7" />,		<circle cx="855" cy="370.95098530188517" r="6" fill="#444cf7" />,		<circle cx="870" cy="269.60385361086804" r="6" fill="#444cf7" />,		<circle cx="885" cy="428.04217513514095" r="6" fill="#444cf7" />,		<circle cx="900" cy="260.38095257119517" r="6" fill="#444cf7" />,		<circle cx="915" cy="464.06606023518015" r="6" fill="#444cf7" />,		<circle cx="930" cy="457.7116157776036" r="6" fill="#444cf7" />,		<circle cx="945" cy="473.01465399895517" r="6" fill="#444cf7" />,		<circle cx="960" cy="344.1027337193871" r="6" fill="#444cf7" />,		<circle cx="975" cy="448.11620255453374" r="6" fill="#444cf7" />   </g> </svg>