<svg   id="chart"   width="1000"   height="500"   viewBox="0 0 1000 500"   xmlns="http://www.w3.org/2000/svg" >      <path d="M 0,497.8571313254872 C 6.72,495.2146606104496 42.56,480.40349432722485 56,475.83654203350693 C 69.44,471.269589739789 98.56,464.7107250766441 112,459.79919554450447 C 125.44,454.88766601236483 154.56,437.96053517272196 168,434.90712926567664 C 181.44,431.8537233586313 210.56,441.82709942031534 224,434.3541463191267 C 237.44,426.88119321793806 266.56,380.7571344706589 280,372.6325200891048 C 293.44,364.50790570755066 322.56,373.3739086873774 336,366.6490264728425 C 349.44,359.92414425830754 378.56,323.47966844303096 392,316.59183496798033 C 405.44,309.7040014929297 434.56,307.3068467436638 448,309.25041418075375 C 461.44,311.19398161784375 490.56,326.8316606362953 504,332.7882302770634 C 517.44,338.74479991783153 546.56,361.1842207801461 560,358.8884945204883 C 573.44,356.59276826083044 602.56,318.80888068266717 616,313.6571781132483 C 629.44,308.5054755438294 658.56,324.3568833896187 672,315.95763977533073 C 685.44,307.55839616104277 714.56,262.81338212011025 728,243.66348132751511 C 741.44,224.51358053491998 770.56,166.45274466668434 784,156.3751331703712 C 797.44,146.2975216740581 826.56,160.4567033404062 840,159.6833855249057 C 853.44,158.9100677094052 882.56,157.8588458128566 896,149.93081804120044 C 909.44,142.00279026954428 938.5600000000001,103.32372214683723 952,93.61648742777106 C 965.44,83.9092527087049 1001.28,71.98671042777039 1008,69.03719538231576,L 1000 500,L 0 500Z" fill="#444cf71a" />   <path d="M 0,497.8571313254872 C 6.72,495.2146606104496 42.56,480.40349432722485 56,475.83654203350693 C 69.44,471.269589739789 98.56,464.7107250766441 112,459.79919554450447 C 125.44,454.88766601236483 154.56,437.96053517272196 168,434.90712926567664 C 181.44,431.8537233586313 210.56,441.82709942031534 224,434.3541463191267 C 237.44,426.88119321793806 266.56,380.7571344706589 280,372.6325200891048 C 293.44,364.50790570755066 322.56,373.3739086873774 336,366.6490264728425 C 349.44,359.92414425830754 378.56,323.47966844303096 392,316.59183496798033 C 405.44,309.7040014929297 434.56,307.3068467436638 448,309.25041418075375 C 461.44,311.19398161784375 490.56,326.8316606362953 504,332.7882302770634 C 517.44,338.74479991783153 546.56,361.1842207801461 560,358.8884945204883 C 573.44,356.59276826083044 602.56,318.80888068266717 616,313.6571781132483 C 629.44,308.5054755438294 658.56,324.3568833896187 672,315.95763977533073 C 685.44,307.55839616104277 714.56,262.81338212011025 728,243.66348132751511 C 741.44,224.51358053491998 770.56,166.45274466668434 784,156.3751331703712 C 797.44,146.2975216740581 826.56,160.4567033404062 840,159.6833855249057 C 853.44,158.9100677094052 882.56,157.8588458128566 896,149.93081804120044 C 909.44,142.00279026954428 938.5600000000001,103.32372214683723 952,93.61648742777106 C 965.44,83.9092527087049 1001.28,71.98671042777039 1008,69.03719538231576" fill="none" stroke="#444cf7" stroke-width="7px" />   <g>   		<circle cx="0" cy="497.8571313254872" r="14" fill="#444cf7" />,		<circle cx="56" cy="475.83654203350693" r="14" fill="#444cf7" />,		<circle cx="112" cy="459.79919554450447" r="14" fill="#444cf7" />,		<circle cx="168" cy="434.90712926567664" r="14" fill="#444cf7" />,		<circle cx="224" cy="434.3541463191267" r="14" fill="#444cf7" />,		<circle cx="280" cy="372.6325200891048" r="14" fill="#444cf7" />,		<circle cx="336" cy="366.6490264728425" r="14" fill="#444cf7" />,		<circle cx="392" cy="316.59183496798033" r="14" fill="#444cf7" />,		<circle cx="448" cy="309.25041418075375" r="14" fill="#444cf7" />,		<circle cx="504" cy="332.7882302770634" r="14" fill="#444cf7" />,		<circle cx="560" cy="358.8884945204883" r="14" fill="#444cf7" />,		<circle cx="616" cy="313.6571781132483" r="14" fill="#444cf7" />,		<circle cx="672" cy="315.95763977533073" r="14" fill="#444cf7" />,		<circle cx="728" cy="243.66348132751511" r="14" fill="#444cf7" />,		<circle cx="784" cy="156.3751331703712" r="14" fill="#444cf7" />,		<circle cx="840" cy="159.6833855249057" r="14" fill="#444cf7" />,		<circle cx="896" cy="149.93081804120044" r="14" fill="#444cf7" />,		<circle cx="952" cy="93.61648742777106" r="14" fill="#444cf7" />,		<circle cx="1008" cy="69.03719538231576" r="14" fill="#444cf7" />   </g> </svg>