<svg   id="chart"   width="1000"   height="500"   viewBox="0 0 1000 500"   xmlns="http://www.w3.org/2000/svg" >      <path d="M 0,304.992029327756 C 3.800000000000003,271.65016587911833 11.40000000000001,181.1940094209373 19,138.28271208456778 C 26.599999999999998,95.37141474819825 30.4,94.29653036848266 38,90.43554264590836 C 45.6,86.57455492333405 49.400000000000006,125.99568887114077 57,118.97777347169625 C 64.6,111.95985807225173 68.39999999999999,20.598782974463283 76,55.34596564868576 C 83.6,90.09314832290823 87.4,262.63125941040335 95,292.71368684280867 C 102.6,322.796114275214 106.4,226.0032995517792 114,205.75810281071227 C 121.6,185.51290606964534 125.4,197.03440443703198 133,191.48770313747406 C 140.6,185.94100183791613 144.4,171.66661021866912 152,178.0245963129227 C 159.6,184.3825824071763 163.39999999999998,194.0975713429906 171,223.27763360874206 C 178.6,252.45769587449354 182.4,310.1181850664035 190,323.92490764168 C 197.6,337.73163021695655 201.4,321.7153304547805 209,292.3112464851248 C 216.6,262.9071625154691 220.4,220.5906682747211 228,176.90448779340164 C 235.6,133.21830731208217 239.4,66.32669102736239 247,73.88034407852751 C 254.6,81.43399712969264 258.4,201.04342996153028 266,214.6727530492273 C 273.6,228.30207613692434 277.4,139.2980586354915 285,142.0269595170127 C 292.6,144.7558603985339 296.4,242.2955385490215 304,228.31725745683332 C 311.6,214.33897636464513 315.4,88.0439067616756 323,72.13555405607184 C 330.6,56.22720135046808 334.4,84.15851244294025 342,148.7754939288145 C 349.6,213.39247541468876 353.4,380.02244223051866 361,395.22046148544314 C 368.6,410.4184807403676 372.4,285.86702225240515 380,224.7655902034369 C 387.6,163.66415815446865 391.4,73.46282870932008 399,89.71330124060194 C 406.6,105.9637737718838 410.4,286.1333510081822 418,306.01795285984616 C 425.6,325.9025547115101 429.4,193.75583706962166 437,189.13631049892166 C 444.6,184.51678392822166 448.4,242.57370689545206 456,282.9203200063462 C 463.6,323.2669331172403 467.4,409.48752788299765 475,390.8693760533922 C 482.6,372.2512242237868 486.4,241.0336332061955 494,189.82956085831904 C 501.6,138.62548851044258 505.4,139.4366957216448 513,134.84901431401 C 520.6,130.26133290637517 524.4,159.73461009175753 532,166.89115382014495 C 539.6,174.04769754853237 543.4,177.31775766987317 551,170.63173295594714 C 558.6,163.9457082420211 562.4,123.68644138015165 570,133.4610302505148 C 577.6,143.23561912087794 581.4,223.7452597527204 589,219.5046773077629 C 596.6,215.26409486280542 600.4,85.88857741302172 608,112.25811802572736 C 615.6,138.627658638433 619.4,322.2254454166507 627,351.352380371291 C 634.6,380.47931532593134 638.4,305.72948620722593 646,257.8927927989289 C 653.6,210.05609939063186 657.4,117.42073763476037 665,112.16891332980583 C 672.6,106.9170890248513 676.4,198.43318968828024 684,231.6336712741562 C 691.6,264.8341528600322 695.4,248.89397718787853 703,278.1713212591857 C 710.6,307.4486653304928 714.4,374.0835114237027 722,378.02039163069185 C 729.6,381.957271837681 733.4,357.3283994394314 741,297.8557222941315 C 748.6,238.38304514883166 752.4,121.82732607284399 760,80.65700590419254 C 767.6,39.4866857355411 771.4,51.24474948426356 779,92.00412145087432 C 786.6,132.76349341748508 790.4,241.31006038990085 798,284.45386573724636 C 805.6,327.59767108459187 809.4,301.1653446329583 817,307.72314818760196 C 824.6,314.28095174224563 828.4,304.62139514230523 836,317.2428835104646 C 843.6,329.86437187862396 847.4,377.8502627893045 855,370.83059002839883 C 862.6,363.81091726749315 866.4,341.8320194828374 874,282.1445197059362 C 881.6,222.457019929035 885.4,85.22643507795154 893,72.39309114389283 C 900.6,59.55974720983413 904.4,171.99774651835486 912,217.9778000356427 C 919.6,263.95785355293054 923.4,301.14007819685673 931,302.2933587303321 C 938.6,303.44663926380747 942.4,258.8874538338613 950,223.74420270301943 C 957.6,188.60095157217756 961.4,100.88585365858981 969,126.5771030761228 C 976.6,152.26835249365578 980.4,317.28405213213847 988,352.2004497906844 C 995.6,387.1168474492303 1003.2,311.36736305321875 1007,301.15909136885233,L 1000 500,L 0 500Z" fill="#444cf71a" />   <path d="M 0,304.992029327756 C 3.800000000000003,271.65016587911833 11.40000000000001,181.1940094209373 19,138.28271208456778 C 26.599999999999998,95.37141474819825 30.4,94.29653036848266 38,90.43554264590836 C 45.6,86.57455492333405 49.400000000000006,125.99568887114077 57,118.97777347169625 C 64.6,111.95985807225173 68.39999999999999,20.598782974463283 76,55.34596564868576 C 83.6,90.09314832290823 87.4,262.63125941040335 95,292.71368684280867 C 102.6,322.796114275214 106.4,226.0032995517792 114,205.75810281071227 C 121.6,185.51290606964534 125.4,197.03440443703198 133,191.48770313747406 C 140.6,185.94100183791613 144.4,171.66661021866912 152,178.0245963129227 C 159.6,184.3825824071763 163.39999999999998,194.0975713429906 171,223.27763360874206 C 178.6,252.45769587449354 182.4,310.1181850664035 190,323.92490764168 C 197.6,337.73163021695655 201.4,321.7153304547805 209,292.3112464851248 C 216.6,262.9071625154691 220.4,220.5906682747211 228,176.90448779340164 C 235.6,133.21830731208217 239.4,66.32669102736239 247,73.88034407852751 C 254.6,81.43399712969264 258.4,201.04342996153028 266,214.6727530492273 C 273.6,228.30207613692434 277.4,139.2980586354915 285,142.0269595170127 C 292.6,144.7558603985339 296.4,242.2955385490215 304,228.31725745683332 C 311.6,214.33897636464513 315.4,88.0439067616756 323,72.13555405607184 C 330.6,56.22720135046808 334.4,84.15851244294025 342,148.7754939288145 C 349.6,213.39247541468876 353.4,380.02244223051866 361,395.22046148544314 C 368.6,410.4184807403676 372.4,285.86702225240515 380,224.7655902034369 C 387.6,163.66415815446865 391.4,73.46282870932008 399,89.71330124060194 C 406.6,105.9637737718838 410.4,286.1333510081822 418,306.01795285984616 C 425.6,325.9025547115101 429.4,193.75583706962166 437,189.13631049892166 C 444.6,184.51678392822166 448.4,242.57370689545206 456,282.9203200063462 C 463.6,323.2669331172403 467.4,409.48752788299765 475,390.8693760533922 C 482.6,372.2512242237868 486.4,241.0336332061955 494,189.82956085831904 C 501.6,138.62548851044258 505.4,139.4366957216448 513,134.84901431401 C 520.6,130.26133290637517 524.4,159.73461009175753 532,166.89115382014495 C 539.6,174.04769754853237 543.4,177.31775766987317 551,170.63173295594714 C 558.6,163.9457082420211 562.4,123.68644138015165 570,133.4610302505148 C 577.6,143.23561912087794 581.4,223.7452597527204 589,219.5046773077629 C 596.6,215.26409486280542 600.4,85.88857741302172 608,112.25811802572736 C 615.6,138.627658638433 619.4,322.2254454166507 627,351.352380371291 C 634.6,380.47931532593134 638.4,305.72948620722593 646,257.8927927989289 C 653.6,210.05609939063186 657.4,117.42073763476037 665,112.16891332980583 C 672.6,106.9170890248513 676.4,198.43318968828024 684,231.6336712741562 C 691.6,264.8341528600322 695.4,248.89397718787853 703,278.1713212591857 C 710.6,307.4486653304928 714.4,374.0835114237027 722,378.02039163069185 C 729.6,381.957271837681 733.4,357.3283994394314 741,297.8557222941315 C 748.6,238.38304514883166 752.4,121.82732607284399 760,80.65700590419254 C 767.6,39.4866857355411 771.4,51.24474948426356 779,92.00412145087432 C 786.6,132.76349341748508 790.4,241.31006038990085 798,284.45386573724636 C 805.6,327.59767108459187 809.4,301.1653446329583 817,307.72314818760196 C 824.6,314.28095174224563 828.4,304.62139514230523 836,317.2428835104646 C 843.6,329.86437187862396 847.4,377.8502627893045 855,370.83059002839883 C 862.6,363.81091726749315 866.4,341.8320194828374 874,282.1445197059362 C 881.6,222.457019929035 885.4,85.22643507795154 893,72.39309114389283 C 900.6,59.55974720983413 904.4,171.99774651835486 912,217.9778000356427 C 919.6,263.95785355293054 923.4,301.14007819685673 931,302.2933587303321 C 938.6,303.44663926380747 942.4,258.8874538338613 950,223.74420270301943 C 957.6,188.60095157217756 961.4,100.88585365858981 969,126.5771030761228 C 976.6,152.26835249365578 980.4,317.28405213213847 988,352.2004497906844 C 995.6,387.1168474492303 1003.2,311.36736305321875 1007,301.15909136885233" fill="none" stroke="#444cf7" stroke-width="5px" />   <g>   		<circle cx="0" cy="304.992029327756" r="10" fill="#444cf7" />,		<circle cx="19" cy="138.28271208456778" r="10" fill="#444cf7" />,		<circle cx="38" cy="90.43554264590836" r="10" fill="#444cf7" />,		<circle cx="57" cy="118.97777347169625" r="10" fill="#444cf7" />,		<circle cx="76" cy="55.34596564868576" r="10" fill="#444cf7" />,		<circle cx="95" cy="292.71368684280867" r="10" fill="#444cf7" />,		<circle cx="114" cy="205.75810281071227" r="10" fill="#444cf7" />,		<circle cx="133" cy="191.48770313747406" r="10" fill="#444cf7" />,		<circle cx="152" cy="178.0245963129227" r="10" fill="#444cf7" />,		<circle cx="171" cy="223.27763360874206" r="10" fill="#444cf7" />,		<circle cx="190" cy="323.92490764168" r="10" fill="#444cf7" />,		<circle cx="209" cy="292.3112464851248" r="10" fill="#444cf7" />,		<circle cx="228" cy="176.90448779340164" r="10" fill="#444cf7" />,		<circle cx="247" cy="73.88034407852751" r="10" fill="#444cf7" />,		<circle cx="266" cy="214.6727530492273" r="10" fill="#444cf7" />,		<circle cx="285" cy="142.0269595170127" r="10" fill="#444cf7" />,		<circle cx="304" cy="228.31725745683332" r="10" fill="#444cf7" />,		<circle cx="323" cy="72.13555405607184" r="10" fill="#444cf7" />,		<circle cx="342" cy="148.7754939288145" r="10" fill="#444cf7" />,		<circle cx="361" cy="395.22046148544314" r="10" fill="#444cf7" />,		<circle cx="380" cy="224.7655902034369" r="10" fill="#444cf7" />,		<circle cx="399" cy="89.71330124060194" r="10" fill="#444cf7" />,		<circle cx="418" cy="306.01795285984616" r="10" fill="#444cf7" />,		<circle cx="437" cy="189.13631049892166" r="10" fill="#444cf7" />,		<circle cx="456" cy="282.9203200063462" r="10" fill="#444cf7" />,		<circle cx="475" cy="390.8693760533922" r="10" fill="#444cf7" />,		<circle cx="494" cy="189.82956085831904" r="10" fill="#444cf7" />,		<circle cx="513" cy="134.84901431401" r="10" fill="#444cf7" />,		<circle cx="532" cy="166.89115382014495" r="10" fill="#444cf7" />,		<circle cx="551" cy="170.63173295594714" r="10" fill="#444cf7" />,		<circle cx="570" cy="133.4610302505148" r="10" fill="#444cf7" />,		<circle cx="589" cy="219.5046773077629" r="10" fill="#444cf7" />,		<circle cx="608" cy="112.25811802572736" r="10" fill="#444cf7" />,		<circle cx="627" cy="351.352380371291" r="10" fill="#444cf7" />,		<circle cx="646" cy="257.8927927989289" r="10" fill="#444cf7" />,		<circle cx="665" cy="112.16891332980583" r="10" fill="#444cf7" />,		<circle cx="684" cy="231.6336712741562" r="10" fill="#444cf7" />,		<circle cx="703" cy="278.1713212591857" r="10" fill="#444cf7" />,		<circle cx="722" cy="378.02039163069185" r="10" fill="#444cf7" />,		<circle cx="741" cy="297.8557222941315" r="10" fill="#444cf7" />,		<circle cx="760" cy="80.65700590419254" r="10" fill="#444cf7" />,		<circle cx="779" cy="92.00412145087432" r="10" fill="#444cf7" />,		<circle cx="798" cy="284.45386573724636" r="10" fill="#444cf7" />,		<circle cx="817" cy="307.72314818760196" r="10" fill="#444cf7" />,		<circle cx="836" cy="317.2428835104646" r="10" fill="#444cf7" />,		<circle cx="855" cy="370.83059002839883" r="10" fill="#444cf7" />,		<circle cx="874" cy="282.1445197059362" r="10" fill="#444cf7" />,		<circle cx="893" cy="72.39309114389283" r="10" fill="#444cf7" />,		<circle cx="912" cy="217.9778000356427" r="10" fill="#444cf7" />,		<circle cx="931" cy="302.2933587303321" r="10" fill="#444cf7" />,		<circle cx="950" cy="223.74420270301943" r="10" fill="#444cf7" />,		<circle cx="969" cy="126.5771030761228" r="10" fill="#444cf7" />,		<circle cx="988" cy="352.2004497906844" r="10" fill="#444cf7" />,		<circle cx="1007" cy="301.15909136885233" r="10" fill="#444cf7" />   </g> </svg>