<svg   id="chart"   width="1000"   height="500"   viewBox="0 0 1000 500"   xmlns="http://www.w3.org/2000/svg" >      <path d="M 0,2.2582002678342397 C 2.8000000000000007,3.068367731416359 8.399999999999999,4.497274015455886 14,6.309037585744836 C 19.6,8.120801156033787 22.4,10.207923380463022 28,11.317018119278995 C 33.6,12.426112858094967 36.4,9.326975796864472 42,11.854511279824699 C 47.6,14.382046762784928 50.4,19.922076619304853 56,23.95469553408013 C 61.6,27.987314448855408 64.4,31.210564424370492 70,32.01760585370108 C 75.6,32.82464728303166 78.4,26.73242019845219 84,27.98990268073305 C 89.6,29.247385163013906 92.4,34.908500970429266 98,38.30501826510537 C 103.6,41.70153555978146 106.4,42.881917917673704 112,44.97248915411354 C 117.6,47.063060390553375 120.4,46.48856261600339 126,48.757874447304545 C 131.6,51.027186278605704 134.4,52.710715840162585 140,56.31904831061932 C 145.6,59.92738078107606 148.4,62.18300292451434 154,66.79953679958822 C 159.6,71.41607067466211 162.4,75.47787620352487 168,79.40171768598876 C 173.6,83.32555916845264 176.4,88.65885571835199 182,86.41874421190768 C 187.6,84.17863270546337 190.4,71.70488465462225 196,68.20116015376723 C 201.6,64.69743565291222 204.4,60.38437425080605 210,68.90012170763262 C 215.6,77.4158691644592 218.4,108.9086677630239 224,110.77989743790013 C 229.6,112.65112711277636 232.4,82.67678976805168 238,78.25627008201378 C 243.6,73.8357503959759 246.4,83.67041311371933 252,88.6772990077107 C 257.6,93.68418490170207 260.4,106.59211256475868 266,103.29069955197063 C 271.6,99.98928653918259 274.4,73.89481650445964 280,72.17023394377048 C 285.6,70.44565138308133 288.4,82.21681443967634 294,94.66778674852485 C 299.6,107.11875905737335 302.4,136.96133696121257 308,134.42509548801303 C 313.6,131.8888540148135 316.4,86.0166830640543 322,81.9865793825271 C 327.6,77.9564757009999 330.4,96.41784694708741 336,114.27457708037703 C 341.6,132.13130721366664 344.4,172.8239029825599 350,171.2702300489752 C 355.6,169.71655711539051 358.4,113.6748541550473 364,106.5062124124536 C 369.6,99.33757066985991 372.4,124.14750194128068 378,135.42702133600673 C 383.6,146.7065407307328 386.4,168.91683670979708 392,162.90380938608388 C 397.6,156.89078206237068 400.4,103.13731385095495 406,105.3618847174407 C 411.6,107.58645558392645 414.4,163.66625143183407 420,174.02666371851262 C 425.6,184.38707600519118 428.4,155.36422621235596 434,157.16394615083343 C 439.6,158.9636660893109 442.4,180.42857736890522 448,183.02526341089998 C 453.6,185.62194945289474 456.4,173.69101392094504 462,170.14737636080727 C 467.6,166.6037388006695 470.4,156.3444458122466 476,165.30707561021111 C 481.6,174.26970540817564 484.4,198.38645223436833 490,214.96052535062984 C 495.6,231.53459846689134 498.4,261.60152203632873 504,248.1774411915186 C 509.6,234.75336034670846 512.4,155.8004923032787 518,147.84012112657922 C 523.6,139.87974994987974 526.4,197.40797031334603 532,208.3755853080212 C 537.6,219.34320030269635 540.4,189.38821632920627 546,202.67819609995496 C 551.6,215.96817587070365 554.4,276.2419520561316 560,274.8254841617647 C 565.6,273.40901626739776 568.4,194.79365729172898 574,195.59585662812046 C 579.6,196.39805596451194 582.4,274.3399885888451 588,278.83648084372214 C 593.6,283.3329730985992 596.4,236.18345918380948 602,218.07831790250572 C 607.6,199.97317662120196 610.4,169.54501558374892 616,188.3107744372034 C 621.6,207.0765332906579 624.4,307.198587140873 630,311.90711216977815 C 635.6,316.6156371986833 638.4,216.47364371349323 644,211.85339958172926 C 649.6,207.2331554499653 652.4,279.07304065684275 658,288.8058915109583 C 663.6,298.53874236507386 666.4,272.65703757856596 672,260.51765385230703 C 677.6,248.3782701260481 680.4,215.06905249026025 686,228.1089728796636 C 691.6,241.14889326906697 694.4,313.9532805172792 700,325.7172557993238 C 705.6,337.48123108136843 708.4,281.19851101865555 714,286.92884928988656 C 719.6,292.65918756111756 722.4,361.46015170687275 728,354.36894715547874 C 733.6,347.2777426040847 736.4,250.47423191987 742,251.47282653291637 C 747.6,252.47142114596275 750.4,351.8191589137398 756,359.36192022071066 C 761.6,366.90468152768153 764.4,297.04134737996156 770,289.18663306777086 C 775.6,281.33191875558015 778.4,331.8366101256893 784,320.0883486597571 C 789.6,308.34008719382496 792.4,248.79749327029572 798,230.44532573811006 C 803.6,212.0931582059244 806.4,230.92167465726112 812,228.32751099882876 C 817.6,225.7333473403964 820.4,204.66635592848954 826,217.4745074459483 C 831.6,230.28265896340704 834.4,270.939991259534 840,292.3682685861225 C 845.6,313.796545912711 848.4,336.42167905797544 854,324.6158940788908 C 859.6,312.81010909980614 862.4,233.21251413472547 868,233.33934369069917 C 873.6,233.46617324667287 876.4,293.8075950367698 882,325.25004185875935 C 887.6,356.6924886807489 890.4,374.81037787780895 896,390.551577800647 C 901.6,406.2927777234851 904.4,431.8439084500618 910,403.95604147294955 C 915.6,376.0681744958373 918.4,253.86664395817854 924,251.1122429150858 C 929.6,248.35784187199306 932.4,356.38410173182086 938,390.1840362574858 C 943.6,423.9839707831507 946.4,440.0105832879591 952,420.1119155434105 C 957.6,400.21324779886186 960.4,294.27084624831804 966,290.69069753474275 C 971.6,287.11054882116747 974.4,364.20440481570324 980,402.21117197553394 C 985.6,440.21793913536465 988.4,494.0487221346416 994,480.72453333389626 C 999.6,467.4003445331509 1002.4,358.32024151938333 1008,335.59022797180734 C 1013.6,312.86021442423134 1016.4,367.0851309231546 1022,367.07446559601635 C 1027.6,367.0638002688781 1033.2,341.844414188096 1036,335.5369013361159,L 1000 500,L 0 500Z" fill="#444cf71a" />   <path d="M 0,2.2582002678342397 C 2.8000000000000007,3.068367731416359 8.399999999999999,4.497274015455886 14,6.309037585744836 C 19.6,8.120801156033787 22.4,10.207923380463022 28,11.317018119278995 C 33.6,12.426112858094967 36.4,9.326975796864472 42,11.854511279824699 C 47.6,14.382046762784928 50.4,19.922076619304853 56,23.95469553408013 C 61.6,27.987314448855408 64.4,31.210564424370492 70,32.01760585370108 C 75.6,32.82464728303166 78.4,26.73242019845219 84,27.98990268073305 C 89.6,29.247385163013906 92.4,34.908500970429266 98,38.30501826510537 C 103.6,41.70153555978146 106.4,42.881917917673704 112,44.97248915411354 C 117.6,47.063060390553375 120.4,46.48856261600339 126,48.757874447304545 C 131.6,51.027186278605704 134.4,52.710715840162585 140,56.31904831061932 C 145.6,59.92738078107606 148.4,62.18300292451434 154,66.79953679958822 C 159.6,71.41607067466211 162.4,75.47787620352487 168,79.40171768598876 C 173.6,83.32555916845264 176.4,88.65885571835199 182,86.41874421190768 C 187.6,84.17863270546337 190.4,71.70488465462225 196,68.20116015376723 C 201.6,64.69743565291222 204.4,60.38437425080605 210,68.90012170763262 C 215.6,77.4158691644592 218.4,108.9086677630239 224,110.77989743790013 C 229.6,112.65112711277636 232.4,82.67678976805168 238,78.25627008201378 C 243.6,73.8357503959759 246.4,83.67041311371933 252,88.6772990077107 C 257.6,93.68418490170207 260.4,106.59211256475868 266,103.29069955197063 C 271.6,99.98928653918259 274.4,73.89481650445964 280,72.17023394377048 C 285.6,70.44565138308133 288.4,82.21681443967634 294,94.66778674852485 C 299.6,107.11875905737335 302.4,136.96133696121257 308,134.42509548801303 C 313.6,131.8888540148135 316.4,86.0166830640543 322,81.9865793825271 C 327.6,77.9564757009999 330.4,96.41784694708741 336,114.27457708037703 C 341.6,132.13130721366664 344.4,172.8239029825599 350,171.2702300489752 C 355.6,169.71655711539051 358.4,113.6748541550473 364,106.5062124124536 C 369.6,99.33757066985991 372.4,124.14750194128068 378,135.42702133600673 C 383.6,146.7065407307328 386.4,168.91683670979708 392,162.90380938608388 C 397.6,156.89078206237068 400.4,103.13731385095495 406,105.3618847174407 C 411.6,107.58645558392645 414.4,163.66625143183407 420,174.02666371851262 C 425.6,184.38707600519118 428.4,155.36422621235596 434,157.16394615083343 C 439.6,158.9636660893109 442.4,180.42857736890522 448,183.02526341089998 C 453.6,185.62194945289474 456.4,173.69101392094504 462,170.14737636080727 C 467.6,166.6037388006695 470.4,156.3444458122466 476,165.30707561021111 C 481.6,174.26970540817564 484.4,198.38645223436833 490,214.96052535062984 C 495.6,231.53459846689134 498.4,261.60152203632873 504,248.1774411915186 C 509.6,234.75336034670846 512.4,155.8004923032787 518,147.84012112657922 C 523.6,139.87974994987974 526.4,197.40797031334603 532,208.3755853080212 C 537.6,219.34320030269635 540.4,189.38821632920627 546,202.67819609995496 C 551.6,215.96817587070365 554.4,276.2419520561316 560,274.8254841617647 C 565.6,273.40901626739776 568.4,194.79365729172898 574,195.59585662812046 C 579.6,196.39805596451194 582.4,274.3399885888451 588,278.83648084372214 C 593.6,283.3329730985992 596.4,236.18345918380948 602,218.07831790250572 C 607.6,199.97317662120196 610.4,169.54501558374892 616,188.3107744372034 C 621.6,207.0765332906579 624.4,307.198587140873 630,311.90711216977815 C 635.6,316.6156371986833 638.4,216.47364371349323 644,211.85339958172926 C 649.6,207.2331554499653 652.4,279.07304065684275 658,288.8058915109583 C 663.6,298.53874236507386 666.4,272.65703757856596 672,260.51765385230703 C 677.6,248.3782701260481 680.4,215.06905249026025 686,228.1089728796636 C 691.6,241.14889326906697 694.4,313.9532805172792 700,325.7172557993238 C 705.6,337.48123108136843 708.4,281.19851101865555 714,286.92884928988656 C 719.6,292.65918756111756 722.4,361.46015170687275 728,354.36894715547874 C 733.6,347.2777426040847 736.4,250.47423191987 742,251.47282653291637 C 747.6,252.47142114596275 750.4,351.8191589137398 756,359.36192022071066 C 761.6,366.90468152768153 764.4,297.04134737996156 770,289.18663306777086 C 775.6,281.33191875558015 778.4,331.8366101256893 784,320.0883486597571 C 789.6,308.34008719382496 792.4,248.79749327029572 798,230.44532573811006 C 803.6,212.0931582059244 806.4,230.92167465726112 812,228.32751099882876 C 817.6,225.7333473403964 820.4,204.66635592848954 826,217.4745074459483 C 831.6,230.28265896340704 834.4,270.939991259534 840,292.3682685861225 C 845.6,313.796545912711 848.4,336.42167905797544 854,324.6158940788908 C 859.6,312.81010909980614 862.4,233.21251413472547 868,233.33934369069917 C 873.6,233.46617324667287 876.4,293.8075950367698 882,325.25004185875935 C 887.6,356.6924886807489 890.4,374.81037787780895 896,390.551577800647 C 901.6,406.2927777234851 904.4,431.8439084500618 910,403.95604147294955 C 915.6,376.0681744958373 918.4,253.86664395817854 924,251.1122429150858 C 929.6,248.35784187199306 932.4,356.38410173182086 938,390.1840362574858 C 943.6,423.9839707831507 946.4,440.0105832879591 952,420.1119155434105 C 957.6,400.21324779886186 960.4,294.27084624831804 966,290.69069753474275 C 971.6,287.11054882116747 974.4,364.20440481570324 980,402.21117197553394 C 985.6,440.21793913536465 988.4,494.0487221346416 994,480.72453333389626 C 999.6,467.4003445331509 1002.4,358.32024151938333 1008,335.59022797180734 C 1013.6,312.86021442423134 1016.4,367.0851309231546 1022,367.07446559601635 C 1027.6,367.0638002688781 1033.2,341.844414188096 1036,335.5369013361159" fill="none" stroke="#444cf7" stroke-width="5px" />   <g>   		<circle cx="0" cy="2.2582002678342397" r="10" fill="#444cf7" />,		<circle cx="14" cy="6.309037585744836" r="10" fill="#444cf7" />,		<circle cx="28" cy="11.317018119278995" r="10" fill="#444cf7" />,		<circle cx="42" cy="11.854511279824699" r="10" fill="#444cf7" />,		<circle cx="56" cy="23.95469553408013" r="10" fill="#444cf7" />,		<circle cx="70" cy="32.01760585370108" r="10" fill="#444cf7" />,		<circle cx="84" cy="27.98990268073305" r="10" fill="#444cf7" />,		<circle cx="98" cy="38.30501826510537" r="10" fill="#444cf7" />,		<circle cx="112" cy="44.97248915411354" r="10" fill="#444cf7" />,		<circle cx="126" cy="48.757874447304545" r="10" fill="#444cf7" />,		<circle cx="140" cy="56.31904831061932" r="10" fill="#444cf7" />,		<circle cx="154" cy="66.79953679958822" r="10" fill="#444cf7" />,		<circle cx="168" cy="79.40171768598876" r="10" fill="#444cf7" />,		<circle cx="182" cy="86.41874421190768" r="10" fill="#444cf7" />,		<circle cx="196" cy="68.20116015376723" r="10" fill="#444cf7" />,		<circle cx="210" cy="68.90012170763262" r="10" fill="#444cf7" />,		<circle cx="224" cy="110.77989743790013" r="10" fill="#444cf7" />,		<circle cx="238" cy="78.25627008201378" r="10" fill="#444cf7" />,		<circle cx="252" cy="88.6772990077107" r="10" fill="#444cf7" />,		<circle cx="266" cy="103.29069955197063" r="10" fill="#444cf7" />,		<circle cx="280" cy="72.17023394377048" r="10" fill="#444cf7" />,		<circle cx="294" cy="94.66778674852485" r="10" fill="#444cf7" />,		<circle cx="308" cy="134.42509548801303" r="10" fill="#444cf7" />,		<circle cx="322" cy="81.9865793825271" r="10" fill="#444cf7" />,		<circle cx="336" cy="114.27457708037703" r="10" fill="#444cf7" />,		<circle cx="350" cy="171.2702300489752" r="10" fill="#444cf7" />,		<circle cx="364" cy="106.5062124124536" r="10" fill="#444cf7" />,		<circle cx="378" cy="135.42702133600673" r="10" fill="#444cf7" />,		<circle cx="392" cy="162.90380938608388" r="10" fill="#444cf7" />,		<circle cx="406" cy="105.3618847174407" r="10" fill="#444cf7" />,		<circle cx="420" cy="174.02666371851262" r="10" fill="#444cf7" />,		<circle cx="434" cy="157.16394615083343" r="10" fill="#444cf7" />,		<circle cx="448" cy="183.02526341089998" r="10" fill="#444cf7" />,		<circle cx="462" cy="170.14737636080727" r="10" fill="#444cf7" />,		<circle cx="476" cy="165.30707561021111" r="10" fill="#444cf7" />,		<circle cx="490" cy="214.96052535062984" r="10" fill="#444cf7" />,		<circle cx="504" cy="248.1774411915186" r="10" fill="#444cf7" />,		<circle cx="518" cy="147.84012112657922" r="10" fill="#444cf7" />,		<circle cx="532" cy="208.3755853080212" r="10" fill="#444cf7" />,		<circle cx="546" cy="202.67819609995496" r="10" fill="#444cf7" />,		<circle cx="560" cy="274.8254841617647" r="10" fill="#444cf7" />,		<circle cx="574" cy="195.59585662812046" r="10" fill="#444cf7" />,		<circle cx="588" cy="278.83648084372214" r="10" fill="#444cf7" />,		<circle cx="602" cy="218.07831790250572" r="10" fill="#444cf7" />,		<circle cx="616" cy="188.3107744372034" r="10" fill="#444cf7" />,		<circle cx="630" cy="311.90711216977815" r="10" fill="#444cf7" />,		<circle cx="644" cy="211.85339958172926" r="10" fill="#444cf7" />,		<circle cx="658" cy="288.8058915109583" r="10" fill="#444cf7" />,		<circle cx="672" cy="260.51765385230703" r="10" fill="#444cf7" />,		<circle cx="686" cy="228.1089728796636" r="10" fill="#444cf7" />,		<circle cx="700" cy="325.7172557993238" r="10" fill="#444cf7" />,		<circle cx="714" cy="286.92884928988656" r="10" fill="#444cf7" />,		<circle cx="728" cy="354.36894715547874" r="10" fill="#444cf7" />,		<circle cx="742" cy="251.47282653291637" r="10" fill="#444cf7" />,		<circle cx="756" cy="359.36192022071066" r="10" fill="#444cf7" />,		<circle cx="770" cy="289.18663306777086" r="10" fill="#444cf7" />,		<circle cx="784" cy="320.0883486597571" r="10" fill="#444cf7" />,		<circle cx="798" cy="230.44532573811006" r="10" fill="#444cf7" />,		<circle cx="812" cy="228.32751099882876" r="10" fill="#444cf7" />,		<circle cx="826" cy="217.4745074459483" r="10" fill="#444cf7" />,		<circle cx="840" cy="292.3682685861225" r="10" fill="#444cf7" />,		<circle cx="854" cy="324.6158940788908" r="10" fill="#444cf7" />,		<circle cx="868" cy="233.33934369069917" r="10" fill="#444cf7" />,		<circle cx="882" cy="325.25004185875935" r="10" fill="#444cf7" />,		<circle cx="896" cy="390.551577800647" r="10" fill="#444cf7" />,		<circle cx="910" cy="403.95604147294955" r="10" fill="#444cf7" />,		<circle cx="924" cy="251.1122429150858" r="10" fill="#444cf7" />,		<circle cx="938" cy="390.1840362574858" r="10" fill="#444cf7" />,		<circle cx="952" cy="420.1119155434105" r="10" fill="#444cf7" />,		<circle cx="966" cy="290.69069753474275" r="10" fill="#444cf7" />,		<circle cx="980" cy="402.21117197553394" r="10" fill="#444cf7" />,		<circle cx="994" cy="480.72453333389626" r="10" fill="#444cf7" />,		<circle cx="1008" cy="335.59022797180734" r="10" fill="#444cf7" />,		<circle cx="1022" cy="367.07446559601635" r="10" fill="#444cf7" />,		<circle cx="1036" cy="335.5369013361159" r="10" fill="#444cf7" />   </g> </svg>