<svg   id="chart"   width="1000"   height="500"   viewBox="0 0 1000 500"   xmlns="http://www.w3.org/2000/svg" >      <path d="M 0,496.424605405771 C 7.2,494.52577105658264 21.6,491.642574560345 36,486.9304336598292 C 50.4,482.2182927593134 57.6,479.11682626007445 72,472.863900903192 C 86.4,466.6109755463096 93.6,462.59816549005467 108,455.6658068754171 C 122.4,448.73344826077954 129.6,444.4247695946631 144,438.2021078300042 C 158.4,431.9794460653453 165.6,426.8507137063468 180,424.5524980521227 C 194.4,422.2542823978986 201.6,425.72636587876605 216,426.7110295588837 C 230.4,427.69569323900134 237.6,438.8356392860429 252,429.47581645271106 C 266.4,420.1159936193792 273.6,386.89640684873285 288,379.9119153922245 C 302.4,372.92742393571615 309.6,401.9513199332639 324,394.55335917016936 C 338.4,387.1553984070748 345.6,360.0792869364861 360,342.92211157675183 C 374.4,325.7649362170176 381.6,306.68357013204144 396,308.7674823714981 C 410.4,310.85139461095474 417.6,351.6151105261494 432,353.34167277403515 C 446.4,355.0682350219209 453.6,331.33528416010495 468,317.4002936109267 C 482.4,303.46530306174856 489.6,294.67921851133735 504,283.6667200281442 C 518.4,272.65422154495104 525.6,265.7667438921985 540,262.33780119496095 C 554.4,258.9088584977234 561.6,260.3240042146049 576,266.52200654195644 C 590.4,272.720008869308 597.6,295.0857747417687 612,293.32781283171875 C 626.4,291.5698509216688 633.6,256.735570629786 648,257.7321969917065 C 662.4,258.7288233536269 669.6,287.3613881126816 684,298.31094464132093 C 698.4,309.26050116996026 705.6,318.2309758163086 720,312.4799796349031 C 734.4,306.72898345349756 741.6,281.64891997523915 756,269.55596373429324 C 770.4,257.4630074933474 777.6,252.63262156472132 792,252.01519843017368 C 806.4,251.39777529562605 813.6,279.328159290334 828,266.4688480615551 C 842.4,253.6095368327762 849.6,190.92049114970115 864,187.7186422862792 C 878.4,184.51679342285723 885.6,242.9396001854287 900,250.45960374444525 C 914.4,257.9796073034618 921.6,225.1137069526381 936,225.31866008136194 C 950.4,225.52361321008578 957.6,250.33683048997997 972,251.4843693880645 C 986.4,252.631908286149 1000.8,235.14195753504052 1008,231.05635457178454,L 1000 500,L 0 500Z" fill="#444cf71a" />   <path d="M 0,496.424605405771 C 7.2,494.52577105658264 21.6,491.642574560345 36,486.9304336598292 C 50.4,482.2182927593134 57.6,479.11682626007445 72,472.863900903192 C 86.4,466.6109755463096 93.6,462.59816549005467 108,455.6658068754171 C 122.4,448.73344826077954 129.6,444.4247695946631 144,438.2021078300042 C 158.4,431.9794460653453 165.6,426.8507137063468 180,424.5524980521227 C 194.4,422.2542823978986 201.6,425.72636587876605 216,426.7110295588837 C 230.4,427.69569323900134 237.6,438.8356392860429 252,429.47581645271106 C 266.4,420.1159936193792 273.6,386.89640684873285 288,379.9119153922245 C 302.4,372.92742393571615 309.6,401.9513199332639 324,394.55335917016936 C 338.4,387.1553984070748 345.6,360.0792869364861 360,342.92211157675183 C 374.4,325.7649362170176 381.6,306.68357013204144 396,308.7674823714981 C 410.4,310.85139461095474 417.6,351.6151105261494 432,353.34167277403515 C 446.4,355.0682350219209 453.6,331.33528416010495 468,317.4002936109267 C 482.4,303.46530306174856 489.6,294.67921851133735 504,283.6667200281442 C 518.4,272.65422154495104 525.6,265.7667438921985 540,262.33780119496095 C 554.4,258.9088584977234 561.6,260.3240042146049 576,266.52200654195644 C 590.4,272.720008869308 597.6,295.0857747417687 612,293.32781283171875 C 626.4,291.5698509216688 633.6,256.735570629786 648,257.7321969917065 C 662.4,258.7288233536269 669.6,287.3613881126816 684,298.31094464132093 C 698.4,309.26050116996026 705.6,318.2309758163086 720,312.4799796349031 C 734.4,306.72898345349756 741.6,281.64891997523915 756,269.55596373429324 C 770.4,257.4630074933474 777.6,252.63262156472132 792,252.01519843017368 C 806.4,251.39777529562605 813.6,279.328159290334 828,266.4688480615551 C 842.4,253.6095368327762 849.6,190.92049114970115 864,187.7186422862792 C 878.4,184.51679342285723 885.6,242.9396001854287 900,250.45960374444525 C 914.4,257.9796073034618 921.6,225.1137069526381 936,225.31866008136194 C 950.4,225.52361321008578 957.6,250.33683048997997 972,251.4843693880645 C 986.4,252.631908286149 1000.8,235.14195753504052 1008,231.05635457178454" fill="none" stroke="#444cf7" stroke-width="4px" />   <g>   		<circle cx="0" cy="496.424605405771" r="8" fill="#444cf7" />,		<circle cx="36" cy="486.9304336598292" r="8" fill="#444cf7" />,		<circle cx="72" cy="472.863900903192" r="8" fill="#444cf7" />,		<circle cx="108" cy="455.6658068754171" r="8" fill="#444cf7" />,		<circle cx="144" cy="438.2021078300042" r="8" fill="#444cf7" />,		<circle cx="180" cy="424.5524980521227" r="8" fill="#444cf7" />,		<circle cx="216" cy="426.7110295588837" r="8" fill="#444cf7" />,		<circle cx="252" cy="429.47581645271106" r="8" fill="#444cf7" />,		<circle cx="288" cy="379.9119153922245" r="8" fill="#444cf7" />,		<circle cx="324" cy="394.55335917016936" r="8" fill="#444cf7" />,		<circle cx="360" cy="342.92211157675183" r="8" fill="#444cf7" />,		<circle cx="396" cy="308.7674823714981" r="8" fill="#444cf7" />,		<circle cx="432" cy="353.34167277403515" r="8" fill="#444cf7" />,		<circle cx="468" cy="317.4002936109267" r="8" fill="#444cf7" />,		<circle cx="504" cy="283.6667200281442" r="8" fill="#444cf7" />,		<circle cx="540" cy="262.33780119496095" r="8" fill="#444cf7" />,		<circle cx="576" cy="266.52200654195644" r="8" fill="#444cf7" />,		<circle cx="612" cy="293.32781283171875" r="8" fill="#444cf7" />,		<circle cx="648" cy="257.7321969917065" r="8" fill="#444cf7" />,		<circle cx="684" cy="298.31094464132093" r="8" fill="#444cf7" />,		<circle cx="720" cy="312.4799796349031" r="8" fill="#444cf7" />,		<circle cx="756" cy="269.55596373429324" r="8" fill="#444cf7" />,		<circle cx="792" cy="252.01519843017368" r="8" fill="#444cf7" />,		<circle cx="828" cy="266.4688480615551" r="8" fill="#444cf7" />,		<circle cx="864" cy="187.7186422862792" r="8" fill="#444cf7" />,		<circle cx="900" cy="250.45960374444525" r="8" fill="#444cf7" />,		<circle cx="936" cy="225.31866008136194" r="8" fill="#444cf7" />,		<circle cx="972" cy="251.4843693880645" r="8" fill="#444cf7" />,		<circle cx="1008" cy="231.05635457178454" r="8" fill="#444cf7" />   </g> </svg>