<svg   id="chart"   width="1000"   height="500"   viewBox="0 0 1000 500"   xmlns="http://www.w3.org/2000/svg" >      <path d="M 0,498.98744863243786 C 1.35,498.41976283027617 12.3,493.92982516193376 15,492.6798286084191 C 17.7,491.4298320549044 27.3,485.7444523243105 30,485.0985980378303 C 32.7,484.4527437513501 42.3,486.6690393206181 45,485.5036698697503 C 47.7,484.3383004188825 57.3,473.86577520740474 60,472.150048583744 C 62.7,470.4343219600833 72.3,467.68657812026885 75,466.44004071796434 C 77.7,465.1935033156598 87.3,460.07946197646766 90,458.29963300258254 C 92.7,456.5198040286974 102.3,446.57678488201947 105,446.6641632303518 C 107.7,446.7515415786841 117.3,458.9130225054416 120,459.2705035396086 C 122.7,459.6279845737757 132.3,451.26727690435166 135,450.63617472109695 C 137.7,450.00507253784224 147.3,453.92020761871674 150,452.2582570590007 C 152.7,450.59630649928465 162.3,434.4691386063371 165,432.17005739091894 C 167.7,429.8709761755008 177.3,426.7246086260987 180,426.7129102210214 C 182.7,426.7012118159441 192.3,435.49340694756546 195,432.0400751122819 C 197.7,428.58674327699833 207.3,392.8510083199407 210,388.3425564956483 C 212.7,383.8341046713559 222.3,378.60987813714024 225,381.9461659534775 C 227.7,385.2824537698147 237.3,425.9484228204584 240,425.4124211216174 C 242.7,424.8764194227764 252.3,376.37829352818466 255,375.99059152191046 C 257.7,375.60288951563626 267.3,420.9306471830986 270,421.104621051904 C 272.7,421.27859492070945 282.3,382.4852910060749 285,377.9236345086375 C 287.7,373.36197801120016 297.3,371.1346893076727 300,370.4195488581555 C 302.7,369.7044084086383 312.3,368.5518411573973 315,369.9776295140018 C 317.7,371.40341787060635 327.3,387.38812938431926 330,386.2616417093167 C 332.7,385.1351540343141 342.3,360.89180348744173 345,357.4610997917512 C 347.7,354.0303960960607 357.3,351.844248410469 360,348.14271175719966 C 362.7,344.44117510393033 372.3,313.3999515876647 375,316.33291475542535 C 377.7,319.265877923186 387.3,375.4112844461975 390,380.7311913989845 C 392.7,386.0510983517715 402.3,376.2490077417047 405,375.442992008614 C 407.7,374.6369762755233 417.3,374.6833619083907 420,371.7754610313099 C 422.7,368.86756015422907 432.3,352.5269102941035 435,343.13298226327174 C 437.7,333.73905423243997 447.3,273.6006924271251 450,267.3984829109568 C 452.7,261.1962733947884 462.3,272.20645718225717 465,274.2195431947348 C 467.7,276.2326292072124 477.3,281.4979508786843 480,289.7661052718196 C 482.7,298.03425966495485 492.3,367.01772544515444 495,366.0879253406822 C 497.7,365.15812523620997 507.3,292.5800424792204 510,279.4349929999057 C 512.7,266.289943520591 522.3,219.0817595005076 525,220.0318200149634 C 527.7,220.9818805294192 537.3,290.92717620600894 540,289.9912209383034 C 542.7,289.05526567059786 552.3,213.9291719476686 555,209.63231704045728 C 557.7,205.33546213324595 567.3,232.58338906166404 570,242.24838863595545 C 572.7,251.91338821024686 582.3,322.37724509885646 585,317.02120119925064 C 587.7,311.6651572996448 597.3,189.5948690381009 600,182.73678975144622 C 602.7,175.87871046479154 612.3,241.06908188397526 615,240.82032023642063 C 617.7,240.571558588866 627.3,177.72224454081135 630,179.97277144528368 C 632.7,182.22329834975602 642.3,260.57194991113033 645,265.8261747305577 C 647.7,271.08039954998503 657.3,248.61896727851564 660,238.3530472166985 C 662.7,228.0871271548814 672.3,150.7388734450504 675,151.76039626592296 C 677.7,152.78191908679554 687.3,248.05157777348316 690,249.70330078194922 C 692.7,251.3550237904153 702.3,166.36135756966465 705,170.11287413776802 C 707.7,173.8643907058714 717.3,289.27481356098457 720,291.38681820531997 C 722.7,293.49882284965537 732.3,198.16377248905516 735,193.5795924081616 C 737.7,188.99541232726804 747.3,242.0157219716048 750,240.45148397316927 C 752.7,238.88724597473376 762.3,173.66891098486414 765,176.19917020332247 C 767.7,178.7294294217808 777.3,272.10222909303843 780,268.5654752893728 C 782.7,265.02872148570714 792.3,145.10287610513666 795,136.9019057181489 C 797.7,128.70093533116113 807.3,179.32105613900768 810,177.4435821006199 C 812.7,175.5661080622321 822.3,127.2888000194508 825,116.04108306939577 C 827.7,104.79336611934073 837.3,54.074616263375816 840,52.46894932223057 C 842.7,50.86328238108533 852.3,84.75528913452646 855,98.20033927889307 C 857.7,111.64538942325967 867.3,187.79621516595876 870,201.85839537074844 C 872.7,215.92057557553812 882.3,252.83132206712685 885,254.44678599877838 C 887.7,256.0622499304299 897.3,237.16721888009235 900,219.80799461132096 C 902.7,202.44877034254958 912.3,60.947416341297846 915,61.566516345763034 C 917.7,62.18561635022822 927.3,222.764462792603 930,226.68688354982305 C 932.7,230.6093043070431 942.3,103.81879496153859 945,105.14896920376356 C 947.7,106.47914344598853 957.3,241.51912366751762 960,241.4665973523227 C 962.7,241.4140710371278 973.65,116.88645632794079 975,104.56534347937554,L 1000 500,L 0 500Z" fill="#444cf71a" />   <path d="M 0,498.98744863243786 C 1.35,498.41976283027617 12.3,493.92982516193376 15,492.6798286084191 C 17.7,491.4298320549044 27.3,485.7444523243105 30,485.0985980378303 C 32.7,484.4527437513501 42.3,486.6690393206181 45,485.5036698697503 C 47.7,484.3383004188825 57.3,473.86577520740474 60,472.150048583744 C 62.7,470.4343219600833 72.3,467.68657812026885 75,466.44004071796434 C 77.7,465.1935033156598 87.3,460.07946197646766 90,458.29963300258254 C 92.7,456.5198040286974 102.3,446.57678488201947 105,446.6641632303518 C 107.7,446.7515415786841 117.3,458.9130225054416 120,459.2705035396086 C 122.7,459.6279845737757 132.3,451.26727690435166 135,450.63617472109695 C 137.7,450.00507253784224 147.3,453.92020761871674 150,452.2582570590007 C 152.7,450.59630649928465 162.3,434.4691386063371 165,432.17005739091894 C 167.7,429.8709761755008 177.3,426.7246086260987 180,426.7129102210214 C 182.7,426.7012118159441 192.3,435.49340694756546 195,432.0400751122819 C 197.7,428.58674327699833 207.3,392.8510083199407 210,388.3425564956483 C 212.7,383.8341046713559 222.3,378.60987813714024 225,381.9461659534775 C 227.7,385.2824537698147 237.3,425.9484228204584 240,425.4124211216174 C 242.7,424.8764194227764 252.3,376.37829352818466 255,375.99059152191046 C 257.7,375.60288951563626 267.3,420.9306471830986 270,421.104621051904 C 272.7,421.27859492070945 282.3,382.4852910060749 285,377.9236345086375 C 287.7,373.36197801120016 297.3,371.1346893076727 300,370.4195488581555 C 302.7,369.7044084086383 312.3,368.5518411573973 315,369.9776295140018 C 317.7,371.40341787060635 327.3,387.38812938431926 330,386.2616417093167 C 332.7,385.1351540343141 342.3,360.89180348744173 345,357.4610997917512 C 347.7,354.0303960960607 357.3,351.844248410469 360,348.14271175719966 C 362.7,344.44117510393033 372.3,313.3999515876647 375,316.33291475542535 C 377.7,319.265877923186 387.3,375.4112844461975 390,380.7311913989845 C 392.7,386.0510983517715 402.3,376.2490077417047 405,375.442992008614 C 407.7,374.6369762755233 417.3,374.6833619083907 420,371.7754610313099 C 422.7,368.86756015422907 432.3,352.5269102941035 435,343.13298226327174 C 437.7,333.73905423243997 447.3,273.6006924271251 450,267.3984829109568 C 452.7,261.1962733947884 462.3,272.20645718225717 465,274.2195431947348 C 467.7,276.2326292072124 477.3,281.4979508786843 480,289.7661052718196 C 482.7,298.03425966495485 492.3,367.01772544515444 495,366.0879253406822 C 497.7,365.15812523620997 507.3,292.5800424792204 510,279.4349929999057 C 512.7,266.289943520591 522.3,219.0817595005076 525,220.0318200149634 C 527.7,220.9818805294192 537.3,290.92717620600894 540,289.9912209383034 C 542.7,289.05526567059786 552.3,213.9291719476686 555,209.63231704045728 C 557.7,205.33546213324595 567.3,232.58338906166404 570,242.24838863595545 C 572.7,251.91338821024686 582.3,322.37724509885646 585,317.02120119925064 C 587.7,311.6651572996448 597.3,189.5948690381009 600,182.73678975144622 C 602.7,175.87871046479154 612.3,241.06908188397526 615,240.82032023642063 C 617.7,240.571558588866 627.3,177.72224454081135 630,179.97277144528368 C 632.7,182.22329834975602 642.3,260.57194991113033 645,265.8261747305577 C 647.7,271.08039954998503 657.3,248.61896727851564 660,238.3530472166985 C 662.7,228.0871271548814 672.3,150.7388734450504 675,151.76039626592296 C 677.7,152.78191908679554 687.3,248.05157777348316 690,249.70330078194922 C 692.7,251.3550237904153 702.3,166.36135756966465 705,170.11287413776802 C 707.7,173.8643907058714 717.3,289.27481356098457 720,291.38681820531997 C 722.7,293.49882284965537 732.3,198.16377248905516 735,193.5795924081616 C 737.7,188.99541232726804 747.3,242.0157219716048 750,240.45148397316927 C 752.7,238.88724597473376 762.3,173.66891098486414 765,176.19917020332247 C 767.7,178.7294294217808 777.3,272.10222909303843 780,268.5654752893728 C 782.7,265.02872148570714 792.3,145.10287610513666 795,136.9019057181489 C 797.7,128.70093533116113 807.3,179.32105613900768 810,177.4435821006199 C 812.7,175.5661080622321 822.3,127.2888000194508 825,116.04108306939577 C 827.7,104.79336611934073 837.3,54.074616263375816 840,52.46894932223057 C 842.7,50.86328238108533 852.3,84.75528913452646 855,98.20033927889307 C 857.7,111.64538942325967 867.3,187.79621516595876 870,201.85839537074844 C 872.7,215.92057557553812 882.3,252.83132206712685 885,254.44678599877838 C 887.7,256.0622499304299 897.3,237.16721888009235 900,219.80799461132096 C 902.7,202.44877034254958 912.3,60.947416341297846 915,61.566516345763034 C 917.7,62.18561635022822 927.3,222.764462792603 930,226.68688354982305 C 932.7,230.6093043070431 942.3,103.81879496153859 945,105.14896920376356 C 947.7,106.47914344598853 957.3,241.51912366751762 960,241.4665973523227 C 962.7,241.4140710371278 973.65,116.88645632794079 975,104.56534347937554" fill="none" stroke="#444cf7" stroke-width="2px" />   <g>   		<circle cx="0" cy="498.98744863243786" r="6" fill="#444cf7" />,		<circle cx="15" cy="492.6798286084191" r="6" fill="#444cf7" />,		<circle cx="30" cy="485.0985980378303" r="6" fill="#444cf7" />,		<circle cx="45" cy="485.5036698697503" r="6" fill="#444cf7" />,		<circle cx="60" cy="472.150048583744" r="6" fill="#444cf7" />,		<circle cx="75" cy="466.44004071796434" r="6" fill="#444cf7" />,		<circle cx="90" cy="458.29963300258254" r="6" fill="#444cf7" />,		<circle cx="105" cy="446.6641632303518" r="6" fill="#444cf7" />,		<circle cx="120" cy="459.2705035396086" r="6" fill="#444cf7" />,		<circle cx="135" cy="450.63617472109695" r="6" fill="#444cf7" />,		<circle cx="150" cy="452.2582570590007" r="6" fill="#444cf7" />,		<circle cx="165" cy="432.17005739091894" r="6" fill="#444cf7" />,		<circle cx="180" cy="426.7129102210214" r="6" fill="#444cf7" />,		<circle cx="195" cy="432.0400751122819" r="6" fill="#444cf7" />,		<circle cx="210" cy="388.3425564956483" r="6" fill="#444cf7" />,		<circle cx="225" cy="381.9461659534775" r="6" fill="#444cf7" />,		<circle cx="240" cy="425.4124211216174" r="6" fill="#444cf7" />,		<circle cx="255" cy="375.99059152191046" r="6" fill="#444cf7" />,		<circle cx="270" cy="421.104621051904" r="6" fill="#444cf7" />,		<circle cx="285" cy="377.9236345086375" r="6" fill="#444cf7" />,		<circle cx="300" cy="370.4195488581555" r="6" fill="#444cf7" />,		<circle cx="315" cy="369.9776295140018" r="6" fill="#444cf7" />,		<circle cx="330" cy="386.2616417093167" r="6" fill="#444cf7" />,		<circle cx="345" cy="357.4610997917512" r="6" fill="#444cf7" />,		<circle cx="360" cy="348.14271175719966" r="6" fill="#444cf7" />,		<circle cx="375" cy="316.33291475542535" r="6" fill="#444cf7" />,		<circle cx="390" cy="380.7311913989845" r="6" fill="#444cf7" />,		<circle cx="405" cy="375.442992008614" r="6" fill="#444cf7" />,		<circle cx="420" cy="371.7754610313099" r="6" fill="#444cf7" />,		<circle cx="435" cy="343.13298226327174" r="6" fill="#444cf7" />,		<circle cx="450" cy="267.3984829109568" r="6" fill="#444cf7" />,		<circle cx="465" cy="274.2195431947348" r="6" fill="#444cf7" />,		<circle cx="480" cy="289.7661052718196" r="6" fill="#444cf7" />,		<circle cx="495" cy="366.0879253406822" r="6" fill="#444cf7" />,		<circle cx="510" cy="279.4349929999057" r="6" fill="#444cf7" />,		<circle cx="525" cy="220.0318200149634" r="6" fill="#444cf7" />,		<circle cx="540" cy="289.9912209383034" r="6" fill="#444cf7" />,		<circle cx="555" cy="209.63231704045728" r="6" fill="#444cf7" />,		<circle cx="570" cy="242.24838863595545" r="6" fill="#444cf7" />,		<circle cx="585" cy="317.02120119925064" r="6" fill="#444cf7" />,		<circle cx="600" cy="182.73678975144622" r="6" fill="#444cf7" />,		<circle cx="615" cy="240.82032023642063" r="6" fill="#444cf7" />,		<circle cx="630" cy="179.97277144528368" r="6" fill="#444cf7" />,		<circle cx="645" cy="265.8261747305577" r="6" fill="#444cf7" />,		<circle cx="660" cy="238.3530472166985" r="6" fill="#444cf7" />,		<circle cx="675" cy="151.76039626592296" r="6" fill="#444cf7" />,		<circle cx="690" cy="249.70330078194922" r="6" fill="#444cf7" />,		<circle cx="705" cy="170.11287413776802" r="6" fill="#444cf7" />,		<circle cx="720" cy="291.38681820531997" r="6" fill="#444cf7" />,		<circle cx="735" cy="193.5795924081616" r="6" fill="#444cf7" />,		<circle cx="750" cy="240.45148397316927" r="6" fill="#444cf7" />,		<circle cx="765" cy="176.19917020332247" r="6" fill="#444cf7" />,		<circle cx="780" cy="268.5654752893728" r="6" fill="#444cf7" />,		<circle cx="795" cy="136.9019057181489" r="6" fill="#444cf7" />,		<circle cx="810" cy="177.4435821006199" r="6" fill="#444cf7" />,		<circle cx="825" cy="116.04108306939577" r="6" fill="#444cf7" />,		<circle cx="840" cy="52.46894932223057" r="6" fill="#444cf7" />,		<circle cx="855" cy="98.20033927889307" r="6" fill="#444cf7" />,		<circle cx="870" cy="201.85839537074844" r="6" fill="#444cf7" />,		<circle cx="885" cy="254.44678599877838" r="6" fill="#444cf7" />,		<circle cx="900" cy="219.80799461132096" r="6" fill="#444cf7" />,		<circle cx="915" cy="61.566516345763034" r="6" fill="#444cf7" />,		<circle cx="930" cy="226.68688354982305" r="6" fill="#444cf7" />,		<circle cx="945" cy="105.14896920376356" r="6" fill="#444cf7" />,		<circle cx="960" cy="241.4665973523227" r="6" fill="#444cf7" />,		<circle cx="975" cy="104.56534347937554" r="6" fill="#444cf7" />   </g> </svg>